<svg xmlns="http://www.w3.org/2000/svg" viewBox="0 0 800 600" preserveAspectRatio="xMidYMid slice"><defs><linearGradient id="sky" x1="0" y1="0" x2="0" y2="1"><stop offset="0" stop-color="#f7d6b0"/><stop offset="0.55" stop-color="#f4a98a"/><stop offset="1" stop-color="#9b5c7a"/></linearGradient><filter id="gr" x="0" y="0" width="100%" height="100%"><feTurbulence type="fractalNoise" baseFrequency="0.85" numOctaves="2" seed="4"/><feColorMatrix type="saturate" values="0"/><feComponentTransfer><feFuncA type="table" tableValues="0 0.07"/></feComponentTransfer></filter></defs><rect x="0" y="0" width="800" height="600" fill="#000" /><rect x="0" y="0" width="800" height="600" fill="url(#sky)" /><defs><radialGradient id="sunglow"><stop offset="0" stop-color="#ffd6a0" stop-opacity="0.9"/><stop offset="0.45" stop-color="#ffd6a0" stop-opacity="0.25"/><stop offset="1" stop-color="#ffd6a0" stop-opacity="0"/></radialGradient></defs><circle cx="110" cy="150" r="96" fill="url(#sunglow)" /><circle cx="110" cy="150" r="30" fill="#fff1cf" /><g transform="translate(540 110) scale(1.1)" opacity="0.55"><ellipse cx="0" cy="0" rx="60" ry="14" fill="#ffffff" /><ellipse cx="-28" cy="-8" rx="30" ry="14" fill="#ffffff" /><ellipse cx="18" cy="-14" rx="34" ry="16" fill="#ffffff" /></g><g transform="translate(240 130) scale(1)" ><path d="M0 0q6 -7 12 0q6 -7 12 0" fill="none" stroke="#3a2a2a" stroke-width="2" stroke-linecap="round"/><path d="M30 -14q4.800000000000001 -5.6000000000000005 9.600000000000001 0q4.800000000000001 -5.6000000000000005 9.600000000000001 0" fill="none" stroke="#3a2a2a" stroke-width="2" stroke-linecap="round"/><path d="M58 6q5.4 -6.3 10.8 0q5.4 -6.3 10.8 0" fill="none" stroke="#3a2a2a" stroke-width="2" stroke-linecap="round"/></g><rect x="220" y="190" width="70" height="330" fill="#b4553b" /><path d="M214 190L255 70L296 190Z" fill="#8a3a2b" /><rect x="248" y="40" width="4" height="34" fill="#3a2a2a" /><rect x="236" y="210" width="38" height="54" fill="#e8d3b4" /><rect x="236" y="290" width="38" height="54" fill="#e8d3b4" /><rect x="226" y="188" width="58" height="8" fill="#e8d3b4" /><rect x="510" y="190" width="70" height="330" fill="#b4553b" /><path d="M504 190L545 70L586 190Z" fill="#8a3a2b" /><rect x="538" y="40" width="4" height="34" fill="#3a2a2a" /><rect x="526" y="210" width="38" height="54" fill="#e8d3b4" /><rect x="526" y="290" width="38" height="54" fill="#e8d3b4" /><rect x="516" y="188" width="58" height="8" fill="#e8d3b4" /><rect x="250" y="330" width="300" height="190" fill="#b4553b" /><rect x="262" y="380" width="22" height="60" fill="#e8d3b4" /><rect x="318" y="380" width="22" height="60" fill="#e8d3b4" /><rect x="374" y="380" width="22" height="60" fill="#e8d3b4" /><rect x="430" y="380" width="22" height="60" fill="#e8d3b4" /><rect x="486" y="380" width="22" height="60" fill="#e8d3b4" /><circle cx="400" cy="360" r="34" fill="#e8d3b4" /><circle cx="400" cy="360" r="24" fill="#7aa3c4" /><path d="M400 336V384M376 360H424" fill="none" stroke="#e8d3b4" stroke-width="3"/><path d="M372 520V450Q400 420 428 450V520Z" fill="#4a2a20" /><circle cx="60" cy="500" r="30" fill="#4d8a52" /><circle cx="740" cy="500" r="30" fill="#3f7a49" /><circle cx="100" cy="500" r="30" fill="#4d8a52" /><circle cx="700" cy="500" r="30" fill="#3f7a49" /><circle cx="140" cy="500" r="30" fill="#4d8a52" /><circle cx="660" cy="500" r="30" fill="#3f7a49" /><circle cx="180" cy="500" r="30" fill="#4d8a52" /><circle cx="620" cy="500" r="30" fill="#3f7a49" /><circle cx="220" cy="500" r="30" fill="#4d8a52" /><circle cx="580" cy="500" r="30" fill="#3f7a49" /><rect x="0" y="520" width="800" height="80" fill="#d9b79b" /><path d="M0 600L260 520H540L800 600Z" fill="#c9a285" /><defs><radialGradient id="vg" cx="0.5" cy="0.45" r="0.75"><stop offset="0.78" stop-color="#000" stop-opacity="0"/><stop offset="1" stop-color="#1b0f0a" stop-opacity="0.13"/></radialGradient></defs><rect x="0" y="0" width="800" height="600" fill="url(#vg)" /><rect width="800" height="600" filter="url(#gr)"/></svg>