<svg xmlns="http://www.w3.org/2000/svg" viewBox="0 0 800 600" preserveAspectRatio="xMidYMid slice"><defs><radialGradient id="tbl" cx="0.5" cy="0.45" r="0.8"><stop offset="0" stop-color="#f0e0c0"/><stop offset="1" stop-color="#d4b888"/></radialGradient><filter id="gr" x="0" y="0" width="100%" height="100%"><feTurbulence type="fractalNoise" baseFrequency="0.85" numOctaves="2" seed="4"/><feColorMatrix type="saturate" values="0"/><feComponentTransfer><feFuncA type="table" tableValues="0 0.07"/></feComponentTransfer></filter></defs><rect x="0" y="0" width="800" height="600" fill="#000" /><rect x="0" y="0" width="800" height="600" fill="url(#tbl)" /><rect x="0" y="0" width="10" height="600" fill="#d4b888" opacity="0.35"/><rect x="22" y="0" width="10" height="600" fill="#d4b888" opacity="0.35"/><rect x="44" y="0" width="10" height="600" fill="#d4b888" opacity="0.35"/><rect x="66" y="0" width="10" height="600" fill="#d4b888" opacity="0.35"/><rect x="88" y="0" width="10" height="600" fill="#d4b888" opacity="0.35"/><rect x="110" y="0" width="10" height="600" fill="#d4b888" opacity="0.35"/><rect x="132" y="0" width="10" height="600" fill="#d4b888" opacity="0.35"/><rect x="154" y="0" width="10" height="600" fill="#d4b888" opacity="0.35"/><rect x="176" y="0" width="10" height="600" fill="#d4b888" opacity="0.35"/><rect x="198" y="0" width="10" height="600" fill="#d4b888" opacity="0.35"/><rect x="220" y="0" width="10" height="600" fill="#d4b888" opacity="0.35"/><rect x="242" y="0" width="10" height="600" fill="#d4b888" opacity="0.35"/><rect x="264" y="0" width="10" height="600" fill="#d4b888" opacity="0.35"/><rect x="286" y="0" width="10" height="600" fill="#d4b888" opacity="0.35"/><rect x="308" y="0" width="10" height="600" fill="#d4b888" opacity="0.35"/><rect x="330" y="0" width="10" height="600" fill="#d4b888" opacity="0.35"/><rect x="352" y="0" width="10" height="600" fill="#d4b888" opacity="0.35"/><rect x="374" y="0" width="10" height="600" fill="#d4b888" opacity="0.35"/><rect x="396" y="0" width="10" height="600" fill="#d4b888" opacity="0.35"/><rect x="418" y="0" width="10" height="600" fill="#d4b888" opacity="0.35"/><rect x="440" y="0" width="10" height="600" fill="#d4b888" opacity="0.35"/><rect x="462" y="0" width="10" height="600" fill="#d4b888" opacity="0.35"/><rect x="484" y="0" width="10" height="600" fill="#d4b888" opacity="0.35"/><rect x="506" y="0" width="10" height="600" fill="#d4b888" opacity="0.35"/><rect x="528" y="0" width="10" height="600" fill="#d4b888" opacity="0.35"/><rect x="550" y="0" width="10" height="600" fill="#d4b888" opacity="0.35"/><rect x="572" y="0" width="10" height="600" fill="#d4b888" opacity="0.35"/><rect x="594" y="0" width="10" height="600" fill="#d4b888" opacity="0.35"/><rect x="616" y="0" width="10" height="600" fill="#d4b888" opacity="0.35"/><rect x="638" y="0" width="10" height="600" fill="#d4b888" opacity="0.35"/><rect x="660" y="0" width="10" height="600" fill="#d4b888" opacity="0.35"/><rect x="682" y="0" width="10" height="600" fill="#d4b888" opacity="0.35"/><rect x="704" y="0" width="10" height="600" fill="#d4b888" opacity="0.35"/><rect x="726" y="0" width="10" height="600" fill="#d4b888" opacity="0.35"/><rect x="748" y="0" width="10" height="600" fill="#d4b888" opacity="0.35"/><rect x="770" y="0" width="10" height="600" fill="#d4b888" opacity="0.35"/><rect x="792" y="0" width="10" height="600" fill="#d4b888" opacity="0.35"/><rect x="814" y="0" width="10" height="600" fill="#d4b888" opacity="0.35"/><rect x="836" y="0" width="10" height="600" fill="#d4b888" opacity="0.35"/><rect x="858" y="0" width="10" height="600" fill="#d4b888" opacity="0.35"/><g transform="translate(10 14)" opacity="0.22" style="filter:blur(0px)"><ellipse cx="400" cy="310" rx="330" ry="250" fill="#000" /></g><ellipse cx="400" cy="310" rx="330" ry="250" fill="#b9825a" /><ellipse cx="400" cy="310" rx="316" ry="238" fill="#cf9a6a" /><path d="M0 0Q10 -14 0 -30Q-10 -14 0 0Z" transform="translate(120 130.2) rotate(107) scale(0.8)" fill="#7ab36a"/><path d="M0 0Q10 -14 0 -30Q-10 -14 0 0Z" transform="translate(161.8 122.2) rotate(217.3) scale(0.8)" fill="#4f8a52"/><path d="M0 0Q10 -14 0 -30Q-10 -14 0 0Z" transform="translate(135 85.1) rotate(207.9) scale(0.8)" fill="#7ab36a"/><path d="M0 0Q10 -14 0 -30Q-10 -14 0 0Z" transform="translate(144.7 135.3) rotate(77.8) scale(0.8)" fill="#4f8a52"/><path d="M0 0Q10 -14 0 -30Q-10 -14 0 0Z" transform="translate(93 140.4) rotate(300) scale(0.8)" fill="#7ab36a"/><path d="M0 0Q10 -14 0 -30Q-10 -14 0 0Z" transform="translate(122.3 174.7) rotate(156) scale(0.8)" fill="#4f8a52"/><path d="M0 0Q10 -14 0 -30Q-10 -14 0 0Z" transform="translate(126.2 94.9) rotate(19.3) scale(0.8)" fill="#7ab36a"/><path d="M0 0Q10 -14 0 -30Q-10 -14 0 0Z" transform="translate(164 140.1) rotate(295.5) scale(0.8)" fill="#4f8a52"/><path d="M0 0Q10 -14 0 -30Q-10 -14 0 0Z" transform="translate(165.7 118.4) rotate(280.1) scale(0.8)" fill="#7ab36a"/><path d="M0 0Q10 -14 0 -30Q-10 -14 0 0Z" transform="translate(119.5 85.3) rotate(26) scale(0.8)" fill="#4f8a52"/><path d="M0 0Q10 -14 0 -30Q-10 -14 0 0Z" transform="translate(135.2 133.4) rotate(27.8) scale(0.8)" fill="#7ab36a"/><path d="M0 0Q10 -14 0 -30Q-10 -14 0 0Z" transform="translate(121.4 138.1) rotate(2.6) scale(0.8)" fill="#4f8a52"/><path d="M0 0Q10 -14 0 -30Q-10 -14 0 0Z" transform="translate(690.4 484.5) rotate(353.5) scale(0.8)" fill="#7ab36a"/><path d="M0 0Q10 -14 0 -30Q-10 -14 0 0Z" transform="translate(712.9 480.1) rotate(126.4) scale(0.8)" fill="#4f8a52"/><path d="M0 0Q10 -14 0 -30Q-10 -14 0 0Z" transform="translate(699 521.9) rotate(31) scale(0.8)" fill="#7ab36a"/><path d="M0 0Q10 -14 0 -30Q-10 -14 0 0Z" transform="translate(733 504.6) rotate(324.3) scale(0.8)" fill="#4f8a52"/><path d="M0 0Q10 -14 0 -30Q-10 -14 0 0Z" transform="translate(667.6 492.1) rotate(22.2) scale(0.8)" fill="#7ab36a"/><path d="M0 0Q10 -14 0 -30Q-10 -14 0 0Z" transform="translate(688.7 476) rotate(161.5) scale(0.8)" fill="#4f8a52"/><path d="M0 0Q10 -14 0 -30Q-10 -14 0 0Z" transform="translate(723.8 493) rotate(268.1) scale(0.8)" fill="#7ab36a"/><path d="M0 0Q10 -14 0 -30Q-10 -14 0 0Z" transform="translate(669.7 467.1) rotate(321.3) scale(0.8)" fill="#4f8a52"/><path d="M0 0Q10 -14 0 -30Q-10 -14 0 0Z" transform="translate(703.2 484.9) rotate(135.9) scale(0.8)" fill="#7ab36a"/><path d="M0 0Q10 -14 0 -30Q-10 -14 0 0Z" transform="translate(645.7 476.5) rotate(248.2) scale(0.8)" fill="#4f8a52"/><path d="M0 0Q10 -14 0 -30Q-10 -14 0 0Z" transform="translate(673 465.3) rotate(14.6) scale(0.8)" fill="#7ab36a"/><path d="M0 0Q10 -14 0 -30Q-10 -14 0 0Z" transform="translate(707.1 456.5) rotate(334.8) scale(0.8)" fill="#4f8a52"/><g transform="translate(240 220) rotate(-10)" ><ellipse cx="0" cy="0" rx="70" ry="52" fill="#f2b432" /><ellipse cx="-10" cy="-8" rx="50" ry="32" fill="#f8d060" /><path d="M-62 -20Q-20 -50 40 -40" fill="none" stroke="#fff3b0" stroke-width="5" opacity="0.7"/></g><g transform="translate(300 360) rotate(20)" ><ellipse cx="0" cy="0" rx="70" ry="52" fill="#f2b432" /><ellipse cx="-10" cy="-8" rx="50" ry="32" fill="#f8d060" /><path d="M-62 -20Q-20 -50 40 -40" fill="none" stroke="#fff3b0" stroke-width="5" opacity="0.7"/></g><g transform="translate(500 210)" ><circle cx="0" cy="0" r="62" fill="#d6246e" /><circle cx="0" cy="0" r="52" fill="#fff6fb" /><circle cx="0" cy="0" r="2.5" fill="#2a1a24" /><circle cx="4.3" cy="8.9" r="2.5" fill="#2a1a24" /><circle cx="-6.7" cy="-4.6" r="2.5" fill="#2a1a24" /><circle cx="-23.8" cy="-25" r="2.5" fill="#2a1a24" /><circle cx="-20.9" cy="17.8" r="2.5" fill="#2a1a24" /><circle cx="11.3" cy="0" r="2.5" fill="#2a1a24" /><circle cx="0" cy="-6.3" r="2.5" fill="#2a1a24" /><circle cx="6" cy="-11.1" r="2.5" fill="#2a1a24" /><circle cx="-2.3" cy="23.2" r="2.5" fill="#2a1a24" /><circle cx="-21.9" cy="14.3" r="2.5" fill="#2a1a24" /><circle cx="-26.9" cy="0" r="2.5" fill="#2a1a24" /><circle cx="0.2" cy="-1.3" r="2.5" fill="#2a1a24" /><circle cx="0" cy="18" r="2.5" fill="#2a1a24" /><circle cx="7.3" cy="-2.9" r="2.5" fill="#2a1a24" /><circle cx="2.2" cy="-35" r="2.5" fill="#2a1a24" /><circle cx="-18.2" cy="0" r="2.5" fill="#2a1a24" /><circle cx="-30.6" cy="7.9" r="2.5" fill="#2a1a24" /><circle cx="-11" cy="-10.5" r="2.5" fill="#2a1a24" /><circle cx="0" cy="-19.7" r="2.5" fill="#2a1a24" /><circle cx="7.9" cy="27.8" r="2.5" fill="#2a1a24" /><circle cx="6.5" cy="0" r="2.5" fill="#2a1a24" /><circle cx="-13.1" cy="-8.2" r="2.5" fill="#2a1a24" /><circle cx="-32" cy="-5.3" r="2.5" fill="#2a1a24" /><circle cx="-21.3" cy="26.6" r="2.5" fill="#2a1a24" /><circle cx="0" cy="1.5" r="2.5" fill="#2a1a24" /><circle cx="7.9" cy="0" r="2.5" fill="#2a1a24" /><circle cx="10.4" cy="1.9" r="2.5" fill="#2a1a24" /><circle cx="-7" cy="16.9" r="2.5" fill="#2a1a24" /><circle cx="-30.8" cy="-12.4" r="2.5" fill="#2a1a24" /><circle cx="-29.9" cy="-29.6" r="2.5" fill="#2a1a24" /><circle cx="0" cy="0" r="2.5" fill="#2a1a24" /><circle cx="7.3" cy="5.8" r="2.5" fill="#2a1a24" /><circle cx="13.3" cy="-15.1" r="2.5" fill="#2a1a24" /><circle cx="-0.3" cy="-11.7" r="2.5" fill="#2a1a24" /><circle cx="-27.2" cy="34.2" r="2.5" fill="#2a1a24" /><circle cx="-36.1" cy="0" r="2.5" fill="#2a1a24" /><path d="M-58 -26Q-70 -44 -50 -54M58 -26Q70 -44 50 -54" stroke="#6fb85a" stroke-width="8" fill="none" stroke-linecap="round"/></g><g transform="translate(640 340)" ><circle cx="0" cy="0" r="62" fill="#d6246e" /><circle cx="0" cy="0" r="52" fill="#fff6fb" /><circle cx="0" cy="0" r="2.5" fill="#2a1a24" /><circle cx="4.3" cy="8.9" r="2.5" fill="#2a1a24" /><circle cx="-6.7" cy="-4.6" r="2.5" fill="#2a1a24" /><circle cx="-23.8" cy="-25" r="2.5" fill="#2a1a24" /><circle cx="-20.9" cy="17.8" r="2.5" fill="#2a1a24" /><circle cx="11.3" cy="0" r="2.5" fill="#2a1a24" /><circle cx="0" cy="-6.3" r="2.5" fill="#2a1a24" /><circle cx="6" cy="-11.1" r="2.5" fill="#2a1a24" /><circle cx="-2.3" cy="23.2" r="2.5" fill="#2a1a24" /><circle cx="-21.9" cy="14.3" r="2.5" fill="#2a1a24" /><circle cx="-26.9" cy="0" r="2.5" fill="#2a1a24" /><circle cx="0.2" cy="-1.3" r="2.5" fill="#2a1a24" /><circle cx="0" cy="18" r="2.5" fill="#2a1a24" /><circle cx="7.3" cy="-2.9" r="2.5" fill="#2a1a24" /><circle cx="2.2" cy="-35" r="2.5" fill="#2a1a24" /><circle cx="-18.2" cy="0" r="2.5" fill="#2a1a24" /><circle cx="-30.6" cy="7.9" r="2.5" fill="#2a1a24" /><circle cx="-11" cy="-10.5" r="2.5" fill="#2a1a24" /><circle cx="0" cy="-19.7" r="2.5" fill="#2a1a24" /><circle cx="7.9" cy="27.8" r="2.5" fill="#2a1a24" /><circle cx="6.5" cy="0" r="2.5" fill="#2a1a24" /><circle cx="-13.1" cy="-8.2" r="2.5" fill="#2a1a24" /><circle cx="-32" cy="-5.3" r="2.5" fill="#2a1a24" /><circle cx="-21.3" cy="26.6" r="2.5" fill="#2a1a24" /><circle cx="0" cy="1.5" r="2.5" fill="#2a1a24" /><circle cx="7.9" cy="0" r="2.5" fill="#2a1a24" /><circle cx="10.4" cy="1.9" r="2.5" fill="#2a1a24" /><circle cx="-7" cy="16.9" r="2.5" fill="#2a1a24" /><circle cx="-30.8" cy="-12.4" r="2.5" fill="#2a1a24" /><circle cx="-29.9" cy="-29.6" r="2.5" fill="#2a1a24" /><circle cx="0" cy="0" r="2.5" fill="#2a1a24" /><circle cx="7.3" cy="5.8" r="2.5" fill="#2a1a24" /><circle cx="13.3" cy="-15.1" r="2.5" fill="#2a1a24" /><circle cx="-0.3" cy="-11.7" r="2.5" fill="#2a1a24" /><circle cx="-27.2" cy="34.2" r="2.5" fill="#2a1a24" /><circle cx="-36.1" cy="0" r="2.5" fill="#2a1a24" /><path d="M-58 -26Q-70 -44 -50 -54M58 -26Q70 -44 50 -54" stroke="#6fb85a" stroke-width="8" fill="none" stroke-linecap="round"/></g><circle cx="430" cy="400" r="34" fill="#d12a2e" /><path d="M460 400l12 0" fill="none" stroke="#7ab33a" stroke-width="4" stroke-linecap="round"/><path d="M457.6 411.7l11.1 4.7" fill="none" stroke="#7ab33a" stroke-width="4" stroke-linecap="round"/><path d="M450.9 421.5l8.4 8.6" fill="none" stroke="#7ab33a" stroke-width="4" stroke-linecap="round"/><path d="M440.9 428l4.3 11.2" fill="none" stroke="#7ab33a" stroke-width="4" stroke-linecap="round"/><path d="M429.1 430l-0.4 12" fill="none" stroke="#7ab33a" stroke-width="4" stroke-linecap="round"/><path d="M417.5 427.3l-5 10.9" fill="none" stroke="#7ab33a" stroke-width="4" stroke-linecap="round"/><path d="M407.9 420.3l-8.8 8.1" fill="none" stroke="#7ab33a" stroke-width="4" stroke-linecap="round"/><path d="M401.7 410l-11.3 4" fill="none" stroke="#7ab33a" stroke-width="4" stroke-linecap="round"/><path d="M400.1 398.2l-12 -0.7" fill="none" stroke="#7ab33a" stroke-width="4" stroke-linecap="round"/><path d="M403.1 386.7l-10.8 -5.3" fill="none" stroke="#7ab33a" stroke-width="4" stroke-linecap="round"/><path d="M410.4 377.3l-7.8 -9.1" fill="none" stroke="#7ab33a" stroke-width="4" stroke-linecap="round"/><path d="M420.8 371.5l-3.7 -11.4" fill="none" stroke="#7ab33a" stroke-width="4" stroke-linecap="round"/><path d="M432.6 370.1l1 -12" fill="none" stroke="#7ab33a" stroke-width="4" stroke-linecap="round"/><path d="M444.1 373.5l5.6 -10.6" fill="none" stroke="#7ab33a" stroke-width="4" stroke-linecap="round"/><path d="M453.3 381.1l9.3 -7.6" fill="none" stroke="#7ab33a" stroke-width="4" stroke-linecap="round"/><path d="M458.8 391.6l11.5 -3.4" fill="none" stroke="#7ab33a" stroke-width="4" stroke-linecap="round"/><circle cx="500" cy="470" r="34" fill="#d12a2e" /><path d="M530 470l12 0" fill="none" stroke="#7ab33a" stroke-width="4" stroke-linecap="round"/><path d="M527.6 481.7l11.1 4.7" fill="none" stroke="#7ab33a" stroke-width="4" stroke-linecap="round"/><path d="M520.9 491.5l8.4 8.6" fill="none" stroke="#7ab33a" stroke-width="4" stroke-linecap="round"/><path d="M510.9 498l4.3 11.2" fill="none" stroke="#7ab33a" stroke-width="4" stroke-linecap="round"/><path d="M499.1 500l-0.4 12" fill="none" stroke="#7ab33a" stroke-width="4" stroke-linecap="round"/><path d="M487.5 497.3l-5 10.9" fill="none" stroke="#7ab33a" stroke-width="4" stroke-linecap="round"/><path d="M477.9 490.3l-8.8 8.1" fill="none" stroke="#7ab33a" stroke-width="4" stroke-linecap="round"/><path d="M471.7 480l-11.3 4" fill="none" stroke="#7ab33a" stroke-width="4" stroke-linecap="round"/><path d="M470.1 468.2l-12 -0.7" fill="none" stroke="#7ab33a" stroke-width="4" stroke-linecap="round"/><path d="M473.1 456.7l-10.8 -5.3" fill="none" stroke="#7ab33a" stroke-width="4" stroke-linecap="round"/><path d="M480.4 447.3l-7.8 -9.1" fill="none" stroke="#7ab33a" stroke-width="4" stroke-linecap="round"/><path d="M490.8 441.5l-3.7 -11.4" fill="none" stroke="#7ab33a" stroke-width="4" stroke-linecap="round"/><path d="M502.6 440.1l1 -12" fill="none" stroke="#7ab33a" stroke-width="4" stroke-linecap="round"/><path d="M514.1 443.5l5.6 -10.6" fill="none" stroke="#7ab33a" stroke-width="4" stroke-linecap="round"/><path d="M523.3 451.1l9.3 -7.6" fill="none" stroke="#7ab33a" stroke-width="4" stroke-linecap="round"/><path d="M528.8 461.6l11.5 -3.4" fill="none" stroke="#7ab33a" stroke-width="4" stroke-linecap="round"/><circle cx="380" cy="470" r="34" fill="#d12a2e" /><path d="M410 470l12 0" fill="none" stroke="#7ab33a" stroke-width="4" stroke-linecap="round"/><path d="M407.6 481.7l11.1 4.7" fill="none" stroke="#7ab33a" stroke-width="4" stroke-linecap="round"/><path d="M400.9 491.5l8.4 8.6" fill="none" stroke="#7ab33a" stroke-width="4" stroke-linecap="round"/><path d="M390.9 498l4.3 11.2" fill="none" stroke="#7ab33a" stroke-width="4" stroke-linecap="round"/><path d="M379.1 500l-0.4 12" fill="none" stroke="#7ab33a" stroke-width="4" stroke-linecap="round"/><path d="M367.5 497.3l-5 10.9" fill="none" stroke="#7ab33a" stroke-width="4" stroke-linecap="round"/><path d="M357.9 490.3l-8.8 8.1" fill="none" stroke="#7ab33a" stroke-width="4" stroke-linecap="round"/><path d="M351.7 480l-11.3 4" fill="none" stroke="#7ab33a" stroke-width="4" stroke-linecap="round"/><path d="M350.1 468.2l-12 -0.7" fill="none" stroke="#7ab33a" stroke-width="4" stroke-linecap="round"/><path d="M353.1 456.7l-10.8 -5.3" fill="none" stroke="#7ab33a" stroke-width="4" stroke-linecap="round"/><path d="M360.4 447.3l-7.8 -9.1" fill="none" stroke="#7ab33a" stroke-width="4" stroke-linecap="round"/><path d="M370.8 441.5l-3.7 -11.4" fill="none" stroke="#7ab33a" stroke-width="4" stroke-linecap="round"/><path d="M382.6 440.1l1 -12" fill="none" stroke="#7ab33a" stroke-width="4" stroke-linecap="round"/><path d="M394.1 443.5l5.6 -10.6" fill="none" stroke="#7ab33a" stroke-width="4" stroke-linecap="round"/><path d="M403.3 451.1l9.3 -7.6" fill="none" stroke="#7ab33a" stroke-width="4" stroke-linecap="round"/><path d="M408.8 461.6l11.5 -3.4" fill="none" stroke="#7ab33a" stroke-width="4" stroke-linecap="round"/><circle cx="180" cy="440" r="34" fill="#6a2a58" /><circle cx="180" cy="440" r="14" fill="#7ab35a" /><circle cx="180" cy="440" r="8" fill="#4f8a42" /><circle cx="240" cy="490" r="34" fill="#6a2a58" /><circle cx="240" cy="490" r="14" fill="#7ab35a" /><circle cx="240" cy="490" r="8" fill="#4f8a42" /><g transform="translate(420 320) rotate(-14)" ><path d="M-90 20Q-20 80 90 -20Q60 20 -60 40Q-80 40 -90 20Z" fill="#f4d24a" /><path d="M-80 24Q-10 70 80 -12" stroke="#d8b030" stroke-width="3" fill="none"/></g><g transform="translate(600 150) rotate(-20) scale(1)" ><path d="M-26 0A26 26 0 0 1 26 0Z" fill="#8fc24a" /><path d="M-20 0A20 20 0 0 1 20 0Z" fill="#d8ec9a" /><path d="M0 0L-12 -16" fill="none" stroke="#8fc24a" stroke-width="2"/><path d="M0 0L0 -16" fill="none" stroke="#8fc24a" stroke-width="2"/><path d="M0 0L12 -16" fill="none" stroke="#8fc24a" stroke-width="2"/></g><defs><radialGradient id="vg" cx="0.5" cy="0.45" r="0.75"><stop offset="0.78" stop-color="#000" stop-opacity="0"/><stop offset="1" stop-color="#1b0f0a" stop-opacity="0.13"/></radialGradient></defs><rect x="0" y="0" width="800" height="600" fill="url(#vg)" /><rect width="800" height="600" filter="url(#gr)"/></svg>