<svg xmlns="http://www.w3.org/2000/svg" viewBox="0 0 800 600" preserveAspectRatio="xMidYMid slice"><defs><linearGradient id="sky" x1="0" y1="0" x2="0" y2="1"><stop offset="0" stop-color="#e6f1c9"/><stop offset="1" stop-color="#b9d79a"/></linearGradient><filter id="gr" x="0" y="0" width="100%" height="100%"><feTurbulence type="fractalNoise" baseFrequency="0.85" numOctaves="2" seed="4"/><feColorMatrix type="saturate" values="0"/><feComponentTransfer><feFuncA type="table" tableValues="0 0.07"/></feComponentTransfer></filter></defs><rect x="0" y="0" width="800" height="600" fill="#000" /><rect x="0" y="0" width="800" height="600" fill="url(#sky)" /><rect x="0" y="300" width="800" height="600" fill="#a9cd91" /><circle cx="-13.8" cy="271.6" r="84.3" fill="#a9cd91" /><circle cx="49.3" cy="261.2" r="68.4" fill="#a9cd91" /><circle cx="80.9" cy="268.3" r="51.2" fill="#a9cd91" /><circle cx="124.7" cy="250.6" r="81.4" fill="#a9cd91" /><circle cx="177.4" cy="279.8" r="76.8" fill="#a9cd91" /><circle cx="231.5" cy="276.9" r="58.5" fill="#a9cd91" /><circle cx="275.2" cy="275.5" r="87.6" fill="#a9cd91" /><circle cx="323.5" cy="268.4" r="70.9" fill="#a9cd91" /><circle cx="365.4" cy="273.2" r="85.8" fill="#a9cd91" /><circle cx="427.3" cy="251.3" r="56.5" fill="#a9cd91" /><circle cx="474.4" cy="259.9" r="56.4" fill="#a9cd91" /><circle cx="526.2" cy="275" r="87.6" fill="#a9cd91" /><circle cx="556.1" cy="264.8" r="83.6" fill="#a9cd91" /><circle cx="612.5" cy="255.3" r="67.6" fill="#a9cd91" /><circle cx="656.1" cy="256.3" r="62.1" fill="#a9cd91" /><circle cx="702.7" cy="277.4" r="86.1" fill="#a9cd91" /><circle cx="752" cy="272.9" r="75.7" fill="#a9cd91" /><circle cx="814" cy="277.8" r="63.2" fill="#a9cd91" /><defs><linearGradient id="m280e6f1c9" x1="0" y1="0" x2="0" y2="1"><stop offset="0" stop-color="#e6f1c9" stop-opacity="0"/><stop offset="1" stop-color="#e6f1c9" stop-opacity="0.35"/></linearGradient></defs><rect x="0" y="280" width="800" height="50" fill="url(#m280e6f1c9)" /><rect x="0" y="360" width="800" height="600" fill="#7fb27c" /><circle cx="-13.8" cy="334.3" r="72.3" fill="#7fb27c" /><circle cx="50.2" cy="311.2" r="58.8" fill="#7fb27c" /><circle cx="91.3" cy="325.8" r="70.5" fill="#7fb27c" /><circle cx="126.1" cy="324.2" r="69.4" fill="#7fb27c" /><circle cx="176.9" cy="338.4" r="85.5" fill="#7fb27c" /><circle cx="242.7" cy="311.5" r="59.1" fill="#7fb27c" /><circle cx="282.3" cy="332.1" r="75.9" fill="#7fb27c" /><circle cx="337" cy="318.5" r="73.6" fill="#7fb27c" /><circle cx="368.2" cy="316.5" r="70.6" fill="#7fb27c" /><circle cx="421.7" cy="335.6" r="80" fill="#7fb27c" /><circle cx="464.5" cy="324.5" r="55.1" fill="#7fb27c" /><circle cx="516.8" cy="316.9" r="84.7" fill="#7fb27c" /><circle cx="576.7" cy="319.4" r="79.7" fill="#7fb27c" /><circle cx="616.1" cy="337.2" r="63.4" fill="#7fb27c" /><circle cx="669.5" cy="333" r="85" fill="#7fb27c" /><circle cx="702.6" cy="319.3" r="76.2" fill="#7fb27c" /><circle cx="759.1" cy="313.5" r="83.1" fill="#7fb27c" /><circle cx="810.6" cy="339.3" r="54.9" fill="#7fb27c" /><defs><linearGradient id="m340e6f1c9" x1="0" y1="0" x2="0" y2="1"><stop offset="0" stop-color="#e6f1c9" stop-opacity="0"/><stop offset="1" stop-color="#e6f1c9" stop-opacity="0.3"/></linearGradient></defs><rect x="0" y="340" width="800" height="50" fill="url(#m340e6f1c9)" /><rect x="0" y="420" width="800" height="600" fill="#4f9060" /><circle cx="-13.8" cy="397.1" r="60.3" fill="#4f9060" /><circle cx="51.1" cy="391.1" r="87.2" fill="#4f9060" /><circle cx="77.6" cy="383.2" r="51.8" fill="#4f9060" /><circle cx="127.4" cy="397.8" r="57.4" fill="#4f9060" /><circle cx="176.3" cy="396.9" r="56.2" fill="#4f9060" /><circle cx="229.9" cy="376.1" r="59.7" fill="#4f9060" /><circle cx="289.5" cy="388.8" r="64.1" fill="#4f9060" /><circle cx="326.5" cy="398.6" r="76.3" fill="#4f9060" /><circle cx="371" cy="389.7" r="55.4" fill="#4f9060" /><circle cx="416.1" cy="389.9" r="65.5" fill="#4f9060" /><circle cx="478.6" cy="389.2" r="53.7" fill="#4f9060" /><circle cx="531.4" cy="388.9" r="81.8" fill="#4f9060" /><circle cx="573.2" cy="374.1" r="75.9" fill="#4f9060" /><circle cx="619.6" cy="389.2" r="59.2" fill="#4f9060" /><circle cx="659" cy="379.7" r="70" fill="#4f9060" /><circle cx="702.6" cy="391.3" r="66.4" fill="#4f9060" /><circle cx="766.3" cy="384.1" r="52.4" fill="#4f9060" /><circle cx="807.2" cy="370.8" r="84.6" fill="#4f9060" /><defs><linearGradient id="m400e6f1c9" x1="0" y1="0" x2="0" y2="1"><stop offset="0" stop-color="#e6f1c9" stop-opacity="0"/><stop offset="1" stop-color="#e6f1c9" stop-opacity="0.24999999999999997"/></linearGradient></defs><rect x="0" y="400" width="800" height="50" fill="url(#m400e6f1c9)" /><rect x="0" y="480" width="800" height="600" fill="#2e6f4d" /><circle cx="-13.7" cy="459.8" r="86.3" fill="#2e6f4d" /><circle cx="52" cy="441.1" r="77.6" fill="#2e6f4d" /><circle cx="88" cy="440.7" r="71.2" fill="#2e6f4d" /><circle cx="128.8" cy="441.4" r="83.5" fill="#2e6f4d" /><circle cx="175.7" cy="455.5" r="64.9" fill="#2e6f4d" /><circle cx="241.1" cy="440.7" r="60.2" fill="#2e6f4d" /><circle cx="272.7" cy="445.4" r="52.4" fill="#2e6f4d" /><circle cx="340" cy="448.7" r="79.1" fill="#2e6f4d" /><circle cx="373.8" cy="433" r="78.2" fill="#2e6f4d" /><circle cx="434.5" cy="444.2" r="50.9" fill="#2e6f4d" /><circle cx="468.7" cy="453.8" r="52.3" fill="#2e6f4d" /><circle cx="521.9" cy="430.8" r="78.8" fill="#2e6f4d" /><circle cx="569.8" cy="458.8" r="72" fill="#2e6f4d" /><circle cx="623.1" cy="441.2" r="55" fill="#2e6f4d" /><circle cx="672.4" cy="456.4" r="54.9" fill="#2e6f4d" /><circle cx="702.6" cy="433.2" r="56.6" fill="#2e6f4d" /><circle cx="749.4" cy="454.8" r="59.7" fill="#2e6f4d" /><circle cx="803.9" cy="432.3" r="76.3" fill="#2e6f4d" /><defs><linearGradient id="m460e6f1c9" x1="0" y1="0" x2="0" y2="1"><stop offset="0" stop-color="#e6f1c9" stop-opacity="0"/><stop offset="1" stop-color="#e6f1c9" stop-opacity="0.19999999999999996"/></linearGradient></defs><rect x="0" y="460" width="800" height="50" fill="url(#m460e6f1c9)" /><rect x="0" y="540" width="800" height="600" fill="#17503a" /><circle cx="-13.7" cy="492.5" r="74.4" fill="#17503a" /><circle cx="28.9" cy="491.1" r="68.1" fill="#17503a" /><circle cx="98.3" cy="498.2" r="52.5" fill="#17503a" /><circle cx="130.2" cy="515.1" r="71.5" fill="#17503a" /><circle cx="175.2" cy="514" r="73.5" fill="#17503a" /><circle cx="228.3" cy="505.3" r="60.8" fill="#17503a" /><circle cx="279.8" cy="502" r="78.7" fill="#17503a" /><circle cx="329.5" cy="498.9" r="81.8" fill="#17503a" /><circle cx="376.6" cy="506.2" r="62.9" fill="#17503a" /><circle cx="428.9" cy="498.5" r="74.4" fill="#17503a" /><circle cx="482.8" cy="518.5" r="50.9" fill="#17503a" /><circle cx="512.5" cy="502.7" r="75.9" fill="#17503a" /><circle cx="566.3" cy="513.4" r="68.1" fill="#17503a" /><circle cx="626.6" cy="493.2" r="50.8" fill="#17503a" /><circle cx="661.8" cy="503.1" r="77.9" fill="#17503a" /><circle cx="702.6" cy="505.1" r="84.8" fill="#17503a" /><circle cx="756.6" cy="495.4" r="67" fill="#17503a" /><circle cx="800.5" cy="493.9" r="68" fill="#17503a" /><defs><linearGradient id="m520e6f1c9" x1="0" y1="0" x2="0" y2="1"><stop offset="0" stop-color="#e6f1c9" stop-opacity="0"/><stop offset="1" stop-color="#e6f1c9" stop-opacity="0.14999999999999997"/></linearGradient></defs><rect x="0" y="520" width="800" height="50" fill="url(#m520e6f1c9)" /><defs><linearGradient id="ray" x1="0" y1="0" x2="0" y2="1"><stop offset="0" stop-color="#fff6c8" stop-opacity="0.5"/><stop offset="1" stop-color="#fff6c8" stop-opacity="0"/></linearGradient></defs><path d="M180 0L240 0L320 600L120 600Z" fill="url(#ray)" opacity="0.55"/><path d="M330 0L390 0L490 600L270 600Z" fill="url(#ray)" opacity="0.55"/><path d="M500 0L560 0L680 600L440 600Z" fill="url(#ray)" opacity="0.55"/><path d="M640 0L700 0L840 600L580 600Z" fill="url(#ray)" opacity="0.55"/><path d="M150 0Q174 120 140 230Q164 300 154 360" stroke="#1d4a33" stroke-width="5" fill="none"/><path d="M360 0Q372 120 350 230Q374 300 364 360" stroke="#1d4a33" stroke-width="5" fill="none"/><path d="M580 0Q580 120 570 230Q594 300 584 360" stroke="#1d4a33" stroke-width="5" fill="none"/><g transform="translate(520 250)" ><ellipse cx="0" cy="0" rx="8" ry="12" fill="#2b2118" /><circle cx="0" cy="-16" r="7" fill="#2b2118" /><path d="M-6 -4Q-22 -26 -10 -46M6 -4Q22 -26 12 -46" stroke="#2b2118" stroke-width="4" fill="none" stroke-linecap="round"/></g><path d="M120 600L360 470H440L680 600Z" fill="#7a5a3c" /><path d="M180 580L370 480" fill="none" stroke="#5b3f27" stroke-width="3"/><path d="M228 580L384 480" fill="none" stroke="#5b3f27" stroke-width="3"/><path d="M276 580L398 480" fill="none" stroke="#5b3f27" stroke-width="3"/><path d="M324 580L412 480" fill="none" stroke="#5b3f27" stroke-width="3"/><defs><radialGradient id="vg" cx="0.5" cy="0.45" r="0.75"><stop offset="0.78" stop-color="#000" stop-opacity="0"/><stop offset="1" stop-color="#1b0f0a" stop-opacity="0.13"/></radialGradient></defs><rect x="0" y="0" width="800" height="600" fill="url(#vg)" /><rect width="800" height="600" filter="url(#gr)"/></svg>